<svg id="Layer_1" data-name="Layer 1" xmlns="http://www.w3.org/2000/svg" viewBox="0 0 1042 1016.82"><defs><style>.cls-1{fill:#fff;}</style></defs><path class="cls-1" d="M1481.35,1072.79h-1042V56h1042Zm-939-617.35c-.34.73-.48,1.13-.7,1.49-16.55,27.88-32.84,55.93-49.77,83.58-11,18-18.82,36.6-16.46,58.29,1.17,10.68,3,21.24,8,30.8,15.11,28.84,30.55,57.51,45.83,86.26C546,747.54,563,779.14,579.61,810.94c13.19,25.28,26,50.79,38.82,76.24,12.5,24.76,31.27,42.92,56.76,53.94a137.44,137.44,0,0,0,57.08,11.25c66.65-.71,133.31-.27,200-.27H938v-260H687l68.22-118,117.28,71.06a74.92,74.92,0,0,0-5.89-10.67q-28.51-46.18-57-92.37-22.84-37-45.71-73.94-21.95-35.49-43.85-71c-1.65-2.69-3.55-3.54-6.64-3.53q-134.25.12-268.5.07c-1.38,0-2.76.14-4.15.21l-.25.83Zm574.19,488.48c12.68,0,24.65,0,36.61,0q29.05.14,58.11.37c1.3,0,2.6,0,3.89.13,27.1,2.49,50.6-5.56,70.63-24,10.48-9.63,17-22.1,24.44-33.91,23.75-37.68,47.39-75.43,71.34-113,23.46-36.79,47.23-73.4,70.91-110.06q31.86-49.32,13.31-105c-5.21-15.76-14.75-29.3-22.84-43.55-26.65-47-53.67-93.79-80.54-140.66l-12.47-21.77L1125.07,482.35l124.84,217.3H1113.44c1.08-46.36,2.13-91.87,3.19-137.38-21.85,39-42.87,78.1-64,117.15Q1014.81,749.59,977,819.75a5,5,0,0,0,0,4.12q24.32,42.6,48.84,85.09,35.84,62.17,71.7,124.33c5.42,9.4,10.87,18.79,17,29.33C1115.19,1022.18,1115.85,983.05,1116.52,943.92Zm-68.39-610.87L929.41,400.76c7.43,0,15.36.3,23.26-.06,25.78-1.16,51.55-2.59,77.32-3.85,21.47-1.05,42.93-2,64.39-3,25.49-1.26,51-2.62,76.44-3.91,16.7-.85,33.4-1.6,50.09-2.62a6.68,6.68,0,0,0,4.56-2.87c3.45-5.65,6.49-11.55,9.69-17.35q24.24-43.89,48.5-87.78c12.7-22.93,25.51-45.8,38.19-68.74,12.1-21.89,24.11-43.82,36.63-66.59L1255,204.05c-1.49-2.44-2.7-4.38-3.87-6.35-17.2-29.16-34.74-58.14-51.5-87.56-15.61-27.42-40.76-38.55-70.18-41.88-14-1.58-28.28-.59-42.43-.75q-40.5-.45-81-.87c-26.73-.29-53.46-.31-80.18-.94-27.48-.65-51,.09-80.47-1.44-18.19,0-31.21.76-48.5,3.84-20.27,7-36.79,19.43-50.94,35.35C735.67,115,729.31,129,721.87,142.28q-38.94,69.54-77.45,139.31c-5.3,9.54-10.54,19.1-15.95,28.89l227.8,125.27c40.86-73.59,81.45-146.67,122.47-220.54C1002.16,255,1025.09,293.91,1048.13,333.05Z" transform="translate(-439.35 -55.97)"/><path d="M542.33,455.44,440.45,394.77l.25-.83c1.39-.07,2.77-.21,4.15-.21q134.25,0,268.5-.07c3.09,0,5,.84,6.64,3.53q21.82,35.58,43.85,71,22.86,37,45.71,73.94,28.51,46.17,57,92.37a74.92,74.92,0,0,1,5.89,10.67L755.17,574.13,687,692.14H938v260h-5.72c-66.66,0-133.32-.44-200,.27a137.44,137.44,0,0,1-57.08-11.25c-25.49-11-44.26-29.18-56.76-53.94-12.86-25.45-25.63-51-38.82-76.24-16.6-31.8-33.58-63.4-50.42-95.08-15.28-28.75-30.72-57.42-45.83-86.26-5-9.56-6.79-20.12-8-30.8-2.36-21.69,5.43-40.28,16.46-58.29,16.93-27.65,33.22-55.7,49.77-83.58C541.85,456.57,542,456.17,542.33,455.44Z" transform="translate(-439.35 -55.97)"/><path d="M1116.52,943.92c-.67,39.13-1.33,78.26-2,118.7-6.1-10.54-11.55-19.93-17-29.33q-35.85-62.16-71.7-124.33-24.48-42.51-48.84-85.09a5,5,0,0,1,0-4.12q37.77-70.21,75.73-140.33c21.08-39,42.1-78.13,64-117.15-1.06,45.51-2.11,91-3.19,137.38h136.47l-124.84-217.3,224.84-129.81,12.47,21.77c26.87,46.87,53.89,93.67,80.54,140.66,8.09,14.25,17.63,27.79,22.84,43.55q18.43,55.68-13.31,105c-23.68,36.66-47.45,73.27-70.91,110.06-24,37.55-47.59,75.3-71.34,113-7.44,11.81-14,24.28-24.44,33.91-20,18.4-43.53,26.45-70.63,24-1.29-.11-2.59-.12-3.89-.13q-29.06-.19-58.11-.37C1141.17,943.88,1129.2,943.92,1116.52,943.92Z" transform="translate(-439.35 -55.97)"/><path d="M1048.13,333.05c-23-39.14-46-78.08-69.39-117.84-41,73.87-81.61,147-122.47,220.54L628.47,310.48c5.41-9.79,10.65-19.35,15.95-28.89q38.69-69.67,77.45-139.31C729.31,129,735.67,115,746,103.45c14.15-15.92,30.67-28.34,50.94-35.35,18.27-6.32,33.71-8.43,46.55-5.94,27.38,5.31,54.94,2.89,82.42,3.54,26.72.63,53.45.65,80.18.94q40.5.44,81,.87c14.15.16,28.44-.83,42.43.75,29.42,3.33,54.57,14.46,70.18,41.88,16.76,29.42,34.3,58.4,51.5,87.56,1.17,2,2.38,3.91,3.87,6.35L1358.48,144c-12.52,22.77-24.53,44.7-36.63,66.59-12.68,22.94-25.49,45.81-38.19,68.74q-24.3,43.86-48.5,87.78c-3.2,5.8-6.24,11.7-9.69,17.35a6.68,6.68,0,0,1-4.56,2.87c-16.69,1-33.39,1.77-50.09,2.62-25.48,1.29-51,2.65-76.44,3.91-21.46,1.06-42.92,2-64.39,3-25.77,1.26-51.54,2.69-77.32,3.85-7.9.36-15.83.06-23.26.06Z" transform="translate(-439.35 -55.97)"/></svg>