<svg id="Layer_1" data-name="Layer 1" xmlns="http://www.w3.org/2000/svg" viewBox="0 0 851.57 851.57"><defs><style>.cls-1{fill:#fff;}</style></defs><path class="cls-1" d="M1385.84,992.71H534.27V141.14h851.57Zm-425.62-618H779.7c-15.05,0-26.07,12-24.76,27,.72,8.24,1.31,16.5,1.95,24.75q2.31,30,4.62,59.9,3.18,40.89,6.38,81.78,3.27,42.21,6.51,84.44,3.6,46.3,7.25,92.6c2.12,27.19,4.16,54.38,6.3,81.57a24.14,24.14,0,0,0,24.29,22.37h297.82a24,24,0,0,0,24.38-22.48c2-25.57,3.77-51.15,5.63-76.72q3-41.24,6-82.48,3.89-53.73,7.78-107.46,2.31-32,4.6-63.9c2.3-31.54,4.66-63.08,6.89-94.63,1.08-15.24-9.78-26.7-25-26.7Zm-226.4-22.86C733.63,364,743,371.7,754,369.32q47-10.1,94-20.23l197.58-42.52q60.66-13.06,121.33-26.1c11.28-2.43,16.81-14.4,11.13-24.27q-8.24-14.31-16.61-28.54c-4-6.9-10.62-9.79-18.47-8.11q-50.93,10.92-101.82,21.95c-1.86.4-2.61-.14-3.47-1.61q-9.56-16.37-19.25-32.65a13.87,13.87,0,0,0-8.25-6.26c-4-1.22-7.76-.1-11.57.72L871.45,229.06c-6.92,1.48-11.25,6.23-12,13.24-1.34,12.41-2.73,24.82-4.05,37.24-.14,1.37-.56,2.12-2,2.33-1.89.27-3.75.8-5.63,1.2q-49.07,10.57-98.13,21.15c-7.11,1.54-12.05,6.67-12.81,13.84C735.56,329.6,734.74,341.17,733.82,351.89Z" transform="translate(-534.27 -141.14)"/><path d="M960.22,374.75h180.07c15.24,0,26.1,11.46,25,26.7-2.23,31.55-4.59,63.09-6.89,94.63q-2.31,31.95-4.6,63.9-3.88,53.73-7.78,107.46-3,41.23-6,82.48c-1.86,25.57-3.68,51.15-5.63,76.72a24,24,0,0,1-24.38,22.48H812.24A24.14,24.14,0,0,1,788,826.75c-2.14-27.19-4.18-54.38-6.3-81.57q-3.6-46.3-7.25-92.6-3.28-42.23-6.51-84.44-3.17-40.89-6.38-81.78-2.32-29.94-4.62-59.9c-.64-8.25-1.23-16.51-1.95-24.75-1.31-15,9.71-27,24.76-27Zm93.44,397.15c-.17,2.14-.38,4.27-.48,6.41a8,8,0,0,0,8.16,8.77c3.54.06,7.09.07,10.64,0a8,8,0,0,0,7.89-7c.16-1.1.23-2.21.31-3.31.67-8.47,1.31-16.94,2-25.41q2.79-34.47,5.6-68.93,2.31-28.52,4.58-57,2.58-32,5.19-64.07,2.12-26.19,4.24-52.37,2.42-29.94,4.8-59.88a7.93,7.93,0,0,0-8-8.66c-3.4-.05-6.8,0-10.2,0-4.89,0-8.12,2.94-8.53,7.77-.61,7.07-1.17,14.14-1.74,21.21l-5.55,68.71q-3.43,42.76-6.88,85.51-2.76,34.26-5.5,68.5Q1056.93,732,1053.66,771.9Zm-37.2-158.19h0c.07-1.32.16-2.65.21-4l3.12-78.84q1.07-26.67,2.14-53.36c.38-9.52.82-19,1.08-28.57.14-5.15-3.29-8.48-8.41-8.5-3.1,0-6.21,0-9.31,0-5.28,0-8.55,3.21-8.76,8.5q-2,49.71-4,99.43-2.17,54.92-4.34,109.84-1.76,44.61-3.5,89.24c-.4,10.34-.89,20.67-1.2,31-.16,5.28,3.24,8.61,8.5,8.65,3,0,5.91,0,8.87,0,5.67,0,8.8-3,9-8.64q1.32-33.33,2.66-66.65Q1014.53,662.76,1016.46,613.71ZM828.72,440.44H825c-6.14,0-9.43,3.47-9,9.65.74,10.69,1.55,21.37,2.34,32.05q3,40.78,6,81.55,2.31,31.17,4.58,62.33,2.77,37.58,5.56,75.15,2.89,39.12,5.77,78.25a7.94,7.94,0,0,0,8.17,7.67c3,0,5.91,0,8.86,0,5.38,0,8.83-3.74,8.5-9.11-.17-2.66-.4-5.31-.6-8q-2.29-31.5-4.6-63-3-40.34-6-80.67-2.55-34.59-5.06-69.19-3.3-45-6.61-90c-.46-6.26-.88-12.53-1.4-18.78-.42-5-3.62-8-8.56-8ZM932.35,613.8h-.19c0-2.36.05-4.73,0-7.09q-.52-25.69-1.08-51.41-.75-33.45-1.55-66.91c-.31-13.22-.56-26.44-.9-39.67-.14-5.21-3.41-8.26-8.65-8.28h-8.43c-5.34,0-8.72,3.7-8.57,9.08q.59,21.72,1,43.43c.38,17.28.7,34.57,1.08,51.85q.79,35.46,1.62,70.91.69,30.9,1.39,61.82l1.56,70.9c.23,10.2.43,20.39.72,30.58.14,4.92,3.48,8,8.41,8.09,2.88,0,5.77,0,8.65,0,5.27,0,8.7-3.6,8.57-8.89-.06-2.21-.18-4.42-.22-6.64q-.54-24.26-1-48.53l-1.56-71.13Q932.78,632.86,932.35,613.8Z" transform="translate(-534.27 -141.14)"/><path d="M733.82,351.89c.92-10.72,1.74-22.29,3-33.83.76-7.17,5.7-12.3,12.81-13.84q49-10.62,98.13-21.15c1.88-.4,3.74-.93,5.63-1.2,1.48-.21,1.9-1,2-2.33,1.32-12.42,2.71-24.83,4.05-37.24.76-7,5.09-11.76,12-13.24L998.62,201.7c3.81-.82,7.59-1.94,11.57-.72a13.87,13.87,0,0,1,8.25,6.26q9.69,16.29,19.25,32.65c.86,1.47,1.61,2,3.47,1.61q50.89-11.07,101.82-21.95c7.85-1.68,14.42,1.21,18.47,8.11q8.37,14.24,16.61,28.54c5.68,9.87.15,21.84-11.13,24.27q-60.66,13-121.33,26.1L848,349.09q-47,10.11-94,20.23C743,371.7,733.63,364,733.82,351.89Zm149.77-76.54,126.82-27.29c-.5-.93-.83-1.58-1.2-2.2-2.81-4.77-5.7-9.51-8.42-14.33-.85-1.51-1.7-1.74-3.35-1.38q-52.62,11.4-105.25,22.69c-2,.43-4.67.33-5.84,1.59s-.87,3.88-1.11,5.92C884.67,265.17,884.17,270,883.59,275.35Z" transform="translate(-534.27 -141.14)"/><path class="cls-1" d="M1053.66,771.9q3.24-39.89,6.49-79.76,2.77-34.25,5.5-68.5,3.43-42.75,6.88-85.51l5.55-68.71c.57-7.07,1.13-14.14,1.74-21.21.41-4.83,3.64-7.75,8.53-7.77,3.4,0,6.8,0,10.2,0a7.93,7.93,0,0,1,8,8.66q-2.35,29.94-4.8,59.88-2.11,26.19-4.24,52.37-2.6,32-5.19,64.07-2.29,28.5-4.58,57-2.79,34.45-5.6,68.93c-.69,8.47-1.33,16.94-2,25.41-.08,1.1-.15,2.21-.31,3.31a8,8,0,0,1-7.89,7c-3.55.06-7.1,0-10.64,0a8,8,0,0,1-8.16-8.77C1053.28,776.17,1053.49,774,1053.66,771.9Z" transform="translate(-534.27 -141.14)"/><path class="cls-1" d="M1016.46,613.71q-1.94,49-3.88,98.1-1.32,33.33-2.66,66.65c-.23,5.62-3.36,8.63-9,8.64-3,0-5.92,0-8.87,0-5.26,0-8.66-3.37-8.5-8.65.31-10.33.8-20.66,1.2-31q1.75-44.62,3.5-89.24,2.16-54.93,4.34-109.84,2-49.72,4-99.43c.21-5.29,3.48-8.48,8.76-8.5,3.1,0,6.21,0,9.31,0,5.12,0,8.55,3.35,8.41,8.5-.26,9.53-.7,19.05-1.08,28.57q-1,26.69-2.14,53.36l-3.12,78.84c0,1.33-.14,2.66-.21,4Z" transform="translate(-534.27 -141.14)"/><path class="cls-1" d="M828.72,440.44h4.21c4.94,0,8.14,3,8.56,8,.52,6.25.94,12.52,1.4,18.78q3.32,45,6.61,90,2.54,34.59,5.06,69.19,3,40.33,6,80.67,2.33,31.49,4.6,63c.2,2.65.43,5.3.6,8,.33,5.37-3.12,9.07-8.5,9.11-3,0-5.91,0-8.86,0a7.94,7.94,0,0,1-8.17-7.67q-2.93-39.12-5.77-78.25Q831.7,663.6,828.9,626q-2.29-31.15-4.58-62.33-3-40.77-6-81.55c-.79-10.68-1.6-21.36-2.34-32.05-.43-6.18,2.86-9.64,9-9.65Z" transform="translate(-534.27 -141.14)"/><path class="cls-1" d="M932.35,613.8q.42,19.07.85,38.11L934.76,723q.53,24.27,1,48.53c0,2.22.16,4.43.22,6.64.13,5.29-3.3,8.85-8.57,8.89-2.88,0-5.77,0-8.65,0-4.93,0-8.27-3.17-8.41-8.09-.29-10.19-.49-20.38-.72-30.58l-1.56-70.9q-.69-30.91-1.39-61.82-.81-35.46-1.62-70.91c-.38-17.28-.7-34.57-1.08-51.85q-.48-21.72-1-43.43c-.15-5.38,3.23-9,8.57-9.08H920c5.24,0,8.51,3.07,8.65,8.28.34,13.23.59,26.45.9,39.67q.76,33.45,1.55,66.91.57,25.71,1.08,51.41c.05,2.36,0,4.73,0,7.09Z" transform="translate(-534.27 -141.14)"/><path class="cls-1" d="M883.59,275.35c.58-5.34,1.08-10.18,1.65-15,.24-2,0-4.68,1.11-5.92s3.83-1.16,5.84-1.59q52.63-11.34,105.25-22.69c1.65-.36,2.5-.13,3.35,1.38,2.72,4.82,5.61,9.56,8.42,14.33.37.62.7,1.27,1.2,2.2Z" transform="translate(-534.27 -141.14)"/></svg>